<svg id="Layer_1" data-name="Layer 1" xmlns="http://www.w3.org/2000/svg" viewBox="0 0 113.39 357.17"><defs><style>.cls-1{fill:#1d1d1b;}</style></defs><title>logo_blackArtboard 2</title><path class="cls-1" d="M67.35,74.71,63.72,65H58.26V58.21h3L56.69,46.05,52.15,58.21h3V65H49.66L46,74.71H38L52.74,36.85h7.9L75.41,74.71Z"/><path class="cls-1" d="M39.28,104.73c0-11,6.27-18.55,15.84-19.63v7.4c-4.86,1.19-8,5.74-8,12.23s3.14,11,8,12.22v7.41C45.55,123.28,39.28,115.71,39.28,104.73Zm19-12.5v-7.3A17.16,17.16,0,0,1,74.11,96.24l-7.19,3.08C65.4,95.37,62.43,92.5,58.26,92.23Zm0,25c4.17-.27,7.14-3.13,8.66-7.08l7.19,3.08a17.22,17.22,0,0,1-15.85,11.3Z"/><path class="cls-1" d="M39.28,153.68c0-11,6.27-18.56,15.84-19.64v7.41c-4.86,1.19-8,5.74-8,12.23s3.14,11,8,12.22v7.41C45.55,172.23,39.28,164.66,39.28,153.68Zm19-12.5v-7.3a17.16,17.16,0,0,1,15.85,11.3l-7.19,3.09C65.4,144.32,62.43,141.45,58.26,141.18Zm0,25c4.17-.27,7.14-3.14,8.66-7.09l7.19,3.09a17.22,17.22,0,0,1-15.85,11.3Z"/><path class="cls-1" d="M55.12,190.72H49.34v7.58h5.78v7H49.34v9.19h5.78v7H41.77V183.69H55.12Zm15.74,0H58.26v-7h12.6ZM68.7,205.33H58.26v-7H68.7Zm2.92,9.19v7H58.26v-7Z"/><path class="cls-1" d="M40.41,261.69l7.09-3.09a9.59,9.59,0,0,0,7.62,5.57v7.09C47.61,270.61,42.68,267.26,40.41,261.69Zm11.36-7.85c-5.14-1.19-10.49-4.32-10.49-10.65s4.16-11,13.84-11.41v6.92c-3.94.16-6.11,1.68-6.11,3.68,0,2.16,2.38,3.46,5.57,4.27l.54.11v7.84Zm6.49-14.92v-7.09c7.68.54,12.12,4.27,14.28,9.52l-7.09,3.08A8.71,8.71,0,0,0,58.26,238.92Zm0,25.52h.22c3.41,0,6.76-1.46,6.76-4.27,0-2.05-1.19-3.51-5-4.38l-2-.49v-7.73l5.79,1.51c5.3,1.36,8.92,4.6,8.92,10.5,0,7-5.78,11.68-14.71,11.79Z"/><path class="cls-1" d="M40.41,310.63l7.09-3.08a9.61,9.61,0,0,0,7.62,5.57v7.09C47.61,319.56,42.68,316.2,40.41,310.63Zm11.36-7.84c-5.14-1.19-10.49-4.33-10.49-10.65s4.16-11,13.84-11.42v6.93c-3.94.16-6.11,1.67-6.11,3.67,0,2.17,2.38,3.47,5.57,4.28l.54.11v7.84Zm6.49-14.93v-7.08c7.68.54,12.12,4.27,14.28,9.52l-7.09,3.08A8.74,8.74,0,0,0,58.26,287.86Zm0,25.53h.22c3.41,0,6.76-1.46,6.76-4.27,0-2.06-1.19-3.52-5-4.38l-2-.49v-7.73L64.05,298c5.3,1.35,8.92,4.6,8.92,10.49,0,7-5.78,11.69-14.71,11.79Z"/></svg>